# xmcd CD database file generated by OrangeCD 6.3
#
# Track frame offsets:
#	150
#	11838
#	24828
#	38193
#	54040
#	70060
#	86473
#	110583
#	125890
#	148963
#	168678
#
# Disc length: 2564 seconds
#
# Revision: 3
# Processed by: cddbd v1.5.2PL0 Copyright (c) Steve Scherf et al.
# Submitted via: OrangeCD 6.3
#
DISCID=950a020b
DTITLE=Various Artist - Rock CD Volume 8: Country Rock
DYEAR=1994
DGENRE=Country
TTITLE0=Mike Nesmith - Listen To The Band
TTITLE1=Flying Burrito Bros/ Wheels
TTITLE2=Gram Parsons - Luxury Liner
TTITLE3=Gene Clark and Carla Olson - Changes
TTITLE4=Crosby and Nash - Carry Me
TTITLE5=Steve Earle - Johnny Come Lately
TTITLE6=Richard and Linda Thompson - Shoot Out The Lights
TTITLE7=Green On Red - Keith Can't Read
TTITLE8=Chuck Prophet - Heart Breaks Like The Dawn
TTITLE9=The Rockingbirds - Standing At The Doorstep Of Love
TTITLE10=Joe Walsh - Rocky Mountain Way
EXTD=RCD Classic Collection 8\nCountry Rock
EXTT0=
EXTT1=
EXTT2=
EXTT3=
EXTT4=
EXTT5=
EXTT6=
EXTT7=
EXTT8=
EXTT9=
EXTT10=
PLAYORDER=
